# xmcd CD database file
#
# Track frame offsets:
#	187
#	23137
#	50512
#
# Disc length: 975 seconds
#
# Revision: 0
# Processed by: cddbd v1.5.1PL0 Copyright (c) Steve Scherf et al.
# Submitted via: CDex 1.51
#
DISCID=1d03cd03
DTITLE=あがた森魚 - キットキット！！遠く遠く！！
DYEAR=1995
DGENRE=Vocal
TTITLE0=キットキット！！遠く遠く！！
TTITLE1=ハリスの旋風
TTITLE2=キットキット！！遠く遠く！！（カラオケ）
EXTD=YEAR: 1995
EXTT0=
EXTT1=
EXTT2=
PLAYORDER=
